<?xml version="1.0"?>
<svg width="640" height="480" xmlns="http://www.w3.org/2000/svg" xmlns:svg="http://www.w3.org/2000/svg">
 <!-- Created with SVG-edit - https://github.com/SVG-Edit/svgedit-->
 <g class="layer">
  <title>Layer 1</title>
  <ellipse cx="324.000001" cy="170.000004" fill="#8d3be5" id="svg_2" rx="156.500001" ry="100.500004" stroke="#00007f" stroke-width="15"/>
  <text fill="#00bfbf" font-family="serif" font-size="24" id="svg_1" stroke="#00007f" stroke-dasharray="null" stroke-linecap="null" stroke-linejoin="null" stroke-width="0" text-anchor="middle" transform="matrix(3.6 0 0 2.63636 -607.5 -384)" x="257.777778" xml:space="preserve" y="222.948277">A      F</text>
  <polygon cx="281.5" cy="292.5" fill="#ff00ff" id="svg_3" orient="point" point="5" points="316.5,76.00697326660156 339.4219970703125,141.95059204101562 409.22137451171875,143.37298583984375 353.58856201171875,185.55081176757812 373.8049621582031,252.37350463867188 316.5,212.49722290039062 259.1950378417969,252.37350463867188 279.41143798828125,185.55081176757812 223.77862548828125,143.37298583984375 293.5780029296875,141.95059204101562 316.5,76.00697326660156 339.4219970703125,141.95059204101562 " r="97.49302" r2="38.997208" shape="star" stroke="#00007f" stroke-width="0" strokeWidth="0" strokecolor="#00007f"/>
  <polygon cx="273.5" cy="300.5" fill="#000000" id="svg_4" orient="point" point="5" points="273.5,300.5 273.5,300.5 273.5,300.5 273.5,300.5 273.5,300.5 273.5,300.5 273.5,300.5 273.5,300.5 273.5,300.5 273.5,300.5 273.5,300.5 273.5,300.5 " r="0" r2="0" shape="star" stroke="#00007f" stroke-width="0" strokeWidth="0" strokecolor="#00007f"/>
 </g>
</svg>